<svg xmlns="http://www.w3.org/2000/svg" viewBox="0 0 506 506"><defs><style>.a{fill:#fff;}.b{fill:#639;}</style></defs><title>gatsbyjs</title><path class="a" d="M451.79,253H325.29v36.14H412c-12.65,54.22-52.41,99.4-104.82,117.47L99.39,198.79C121.08,135.54,182.52,90.36,253,90.36c54.21,0,103,27.1,133.73,68.67l27.11-23.49c-36.15-48.8-94-81.33-160.84-81.33-94,0-173.49,66.87-193.36,155.42L298.18,448.17C384.92,426.49,451.79,347,451.79,253ZM54.21,254.81c0,50.6,19.88,99.39,57.83,137.34S200.59,450,249.39,450Z"/><path class="b" d="M253,0C113.85,0,0,113.85,0,253S113.85,506,253,506,506,392.15,506,253,392.15,0,253,0ZM112,394C74.09,356,54.21,305.41,54.21,256.61l197,195.18C200.59,450,150,431.91,112,394Zm184.33,52.4L59.64,209.63C79.51,121.08,159,54.21,253,54.21c66.86,0,124.69,32.53,160.84,81.33L386.73,159C356,117.46,307.21,90.36,253,90.36c-70.48,0-130.11,45.18-153.61,108.43L307.21,406.61c52.41-18.07,92.17-63.25,104.82-117.47H325.29V253h126.5C451.79,347,384.92,426.49,296.37,446.36Z"/></svg>