<?xml version="1.0" standalone="no"?>
<svg xmlns:xlink="http://www.w3.org/1999/xlink" id="wave" style="transform:rotate(180deg); transition: 0.3s" viewBox="0 0 1440 100" version="1.1" xmlns="http://www.w3.org/2000/svg"><defs><linearGradient id="sw-gradient-0" x1="0" x2="0" y1="1" y2="0"><stop stop-color="rgba(0, 0, 0, 1)" offset="0%"/><stop stop-color="rgba(0, 0, 0, 1)" offset="100%"/></linearGradient></defs><path style="transform:translate(0, 0px); opacity:1" fill="url(#sw-gradient-0)" d="M0,30L10,31.7C20,33,40,37,60,43.3C80,50,100,60,120,55C140,50,160,30,180,31.7C200,33,220,57,240,66.7C260,77,280,73,300,66.7C320,60,340,50,360,51.7C380,53,400,67,420,65C440,63,460,47,480,43.3C500,40,520,50,540,48.3C560,47,580,33,600,35C620,37,640,53,660,63.3C680,73,700,77,720,66.7C740,57,760,33,780,30C800,27,820,43,840,55C860,67,880,73,900,66.7C920,60,940,40,960,31.7C980,23,1000,27,1020,35C1040,43,1060,57,1080,53.3C1100,50,1120,30,1140,30C1160,30,1180,50,1200,48.3C1220,47,1240,23,1260,11.7C1280,0,1300,0,1320,13.3C1340,27,1360,53,1380,65C1400,77,1420,73,1430,71.7L1440,70L1440,100L1430,100C1420,100,1400,100,1380,100C1360,100,1340,100,1320,100C1300,100,1280,100,1260,100C1240,100,1220,100,1200,100C1180,100,1160,100,1140,100C1120,100,1100,100,1080,100C1060,100,1040,100,1020,100C1000,100,980,100,960,100C940,100,920,100,900,100C880,100,860,100,840,100C820,100,800,100,780,100C760,100,740,100,720,100C700,100,680,100,660,100C640,100,620,100,600,100C580,100,560,100,540,100C520,100,500,100,480,100C460,100,440,100,420,100C400,100,380,100,360,100C340,100,320,100,300,100C280,100,260,100,240,100C220,100,200,100,180,100C160,100,140,100,120,100C100,100,80,100,60,100C40,100,20,100,10,100L0,100Z"/></svg>