<?xml version="1.0" standalone="no"?>
<svg xmlns:xlink="http://www.w3.org/1999/xlink" id="wave" style="transform:rotate(0deg); transition: 0.3s" viewBox="0 0 1440 100" version="1.1" xmlns="http://www.w3.org/2000/svg"><defs><linearGradient id="sw-gradient-0" x1="0" x2="0" y1="1" y2="0"><stop stop-color="rgba(0, 0, 0, 1)" offset="0%"/><stop stop-color="rgba(0, 0, 0, 1)" offset="100%"/></linearGradient></defs><path style="transform:translate(0, 0px); opacity:1" fill="url(#sw-gradient-0)" d="M0,30L10,40C20,50,40,70,60,73.3C80,77,100,63,120,55C140,47,160,43,180,43.3C200,43,220,47,240,48.3C260,50,280,50,300,41.7C320,33,340,17,360,21.7C380,27,400,53,420,55C440,57,460,33,480,30C500,27,520,43,540,48.3C560,53,580,47,600,48.3C620,50,640,60,660,68.3C680,77,700,83,720,76.7C740,70,760,50,780,38.3C800,27,820,23,840,23.3C860,23,880,27,900,28.3C920,30,940,30,960,36.7C980,43,1000,57,1020,53.3C1040,50,1060,30,1080,23.3C1100,17,1120,23,1140,33.3C1160,43,1180,57,1200,55C1220,53,1240,37,1260,25C1280,13,1300,7,1320,5C1340,3,1360,7,1380,10C1400,13,1420,17,1430,18.3L1440,20L1440,100L1430,100C1420,100,1400,100,1380,100C1360,100,1340,100,1320,100C1300,100,1280,100,1260,100C1240,100,1220,100,1200,100C1180,100,1160,100,1140,100C1120,100,1100,100,1080,100C1060,100,1040,100,1020,100C1000,100,980,100,960,100C940,100,920,100,900,100C880,100,860,100,840,100C820,100,800,100,780,100C760,100,740,100,720,100C700,100,680,100,660,100C640,100,620,100,600,100C580,100,560,100,540,100C520,100,500,100,480,100C460,100,440,100,420,100C400,100,380,100,360,100C340,100,320,100,300,100C280,100,260,100,240,100C220,100,200,100,180,100C160,100,140,100,120,100C100,100,80,100,60,100C40,100,20,100,10,100L0,100Z"/></svg>