<svg id="visual" viewBox="0 0 960 200" width="960" height="200" xmlns="http://www.w3.org/2000/svg" xmlns:xlink="http://www.w3.org/1999/xlink" version="1.1"><path d="M0 97L20 104.7C40 112.3 80 127.7 120 129C160 130.3 200 117.7 240 113.2C280 108.7 320 112.3 360 117.7C400 123 440 130 480 127.7C520 125.3 560 113.7 600 107.2C640 100.7 680 99.3 720 108.7C760 118 800 138 840 141.8C880 145.7 920 133.3 940 127.2L960 121L960 0L940 0C920 0 880 0 840 0C800 0 760 0 720 0C680 0 640 0 600 0C560 0 520 0 480 0C440 0 400 0 360 0C320 0 280 0 240 0C200 0 160 0 120 0C80 0 40 0 20 0L0 0Z" fill="#c62368"></path><path d="M0 120L20 113.5C40 107 80 94 120 87C160 80 200 79 240 86C280 93 320 108 360 112.7C400 117.3 440 111.7 480 105.2C520 98.7 560 91.3 600 85.2C640 79 680 74 720 73.2C760 72.3 800 75.7 840 78.3C880 81 920 83 940 84L960 85L960 0L940 0C920 0 880 0 840 0C800 0 760 0 720 0C680 0 640 0 600 0C560 0 520 0 480 0C440 0 400 0 360 0C320 0 280 0 240 0C200 0 160 0 120 0C80 0 40 0 20 0L0 0Z" fill="#da3462"></path><path d="M0 93L20 92C40 91 80 89 120 84.5C160 80 200 73 240 71.2C280 69.3 320 72.7 360 72.7C400 72.7 440 69.3 480 65.2C520 61 560 56 600 54.7C640 53.3 680 55.7 720 60.5C760 65.3 800 72.7 840 70.5C880 68.3 920 56.7 940 50.8L960 45L960 0L940 0C920 0 880 0 840 0C800 0 760 0 720 0C680 0 640 0 600 0C560 0 520 0 480 0C440 0 400 0 360 0C320 0 280 0 240 0C200 0 160 0 120 0C80 0 40 0 20 0L0 0Z" fill="#eb485a"></path><path d="M0 20L20 25.5C40 31 80 42 120 46.3C160 50.7 200 48.3 240 42.7C280 37 320 28 360 24.5C400 21 440 23 480 26C520 29 560 33 600 33.7C640 34.3 680 31.7 720 30.7C760 29.7 800 30.3 840 28.8C880 27.3 920 23.7 940 21.8L960 20L960 0L940 0C920 0 880 0 840 0C800 0 760 0 720 0C680 0 640 0 600 0C560 0 520 0 480 0C440 0 400 0 360 0C320 0 280 0 240 0C200 0 160 0 120 0C80 0 40 0 20 0L0 0Z" fill="#fa5d52"></path></svg>