<svg id="visual" viewBox="0 0 960 200" width="960" height="200" xmlns="http://www.w3.org/2000/svg" xmlns:xlink="http://www.w3.org/1999/xlink" version="1.1"><path d="M0 38L20 38C40 38 80 38 120 48.7C160 59.3 200 80.7 240 83C280 85.3 320 68.7 360 58.2C400 47.7 440 43.3 480 47.7C520 52 560 65 600 67C640 69 680 60 720 62.3C760 64.7 800 78.3 840 75.8C880 73.3 920 54.7 940 45.3L960 36L960 201L940 201C920 201 880 201 840 201C800 201 760 201 720 201C680 201 640 201 600 201C560 201 520 201 480 201C440 201 400 201 360 201C320 201 280 201 240 201C200 201 160 201 120 201C80 201 40 201 20 201L0 201Z" fill="#c62368"></path><path d="M0 81L20 87.7C40 94.3 80 107.7 120 115C160 122.3 200 123.7 240 124.7C280 125.7 320 126.3 360 124.8C400 123.3 440 119.7 480 114.7C520 109.7 560 103.3 600 98C640 92.7 680 88.3 720 84C760 79.7 800 75.3 840 79.2C880 83 920 95 940 101L960 107L960 201L940 201C920 201 880 201 840 201C800 201 760 201 720 201C680 201 640 201 600 201C560 201 520 201 480 201C440 201 400 201 360 201C320 201 280 201 240 201C200 201 160 201 120 201C80 201 40 201 20 201L0 201Z" fill="#da3462"></path><path d="M0 135L20 135C40 135 80 135 120 135.7C160 136.3 200 137.7 240 140C280 142.3 320 145.7 360 147.2C400 148.7 440 148.3 480 144.3C520 140.3 560 132.7 600 128.7C640 124.7 680 124.3 720 122.8C760 121.3 800 118.7 840 119.3C880 120 920 124 940 126L960 128L960 201L940 201C920 201 880 201 840 201C800 201 760 201 720 201C680 201 640 201 600 201C560 201 520 201 480 201C440 201 400 201 360 201C320 201 280 201 240 201C200 201 160 201 120 201C80 201 40 201 20 201L0 201Z" fill="#eb485a"></path><path d="M0 155L20 156.3C40 157.7 80 160.3 120 157.7C160 155 200 147 240 144.5C280 142 320 145 360 146.3C400 147.7 440 147.3 480 150.7C520 154 560 161 600 164.2C640 167.3 680 166.7 720 166.8C760 167 800 168 840 168.7C880 169.3 920 169.7 940 169.8L960 170L960 201L940 201C920 201 880 201 840 201C800 201 760 201 720 201C680 201 640 201 600 201C560 201 520 201 480 201C440 201 400 201 360 201C320 201 280 201 240 201C200 201 160 201 120 201C80 201 40 201 20 201L0 201Z" fill="#fa5d52"></path></svg>