<svg id="visual" viewBox="0 0 960 200" width="960" height="200" xmlns="http://www.w3.org/2000/svg" xmlns:xlink="http://www.w3.org/1999/xlink" version="1.1"><path d="M0 154L13.3 154.7C26.7 155.3 53.3 156.7 80 151.2C106.7 145.7 133.3 133.3 160 134.7C186.7 136 213.3 151 240 151.8C266.7 152.7 293.3 139.3 320 130.7C346.7 122 373.3 118 400 124.7C426.7 131.3 453.3 148.7 480 153.7C506.7 158.7 533.3 151.3 560 148.5C586.7 145.7 613.3 147.3 640 150.2C666.7 153 693.3 157 720 159.5C746.7 162 773.3 163 800 158C826.7 153 853.3 142 880 135.3C906.7 128.7 933.3 126.3 946.7 125.2L960 124L960 0L946.7 0C933.3 0 906.7 0 880 0C853.3 0 826.7 0 800 0C773.3 0 746.7 0 720 0C693.3 0 666.7 0 640 0C613.3 0 586.7 0 560 0C533.3 0 506.7 0 480 0C453.3 0 426.7 0 400 0C373.3 0 346.7 0 320 0C293.3 0 266.7 0 240 0C213.3 0 186.7 0 160 0C133.3 0 106.7 0 80 0C53.3 0 26.7 0 13.3 0L0 0Z" fill="#f2f2f2"></path><path d="M0 121L13.3 119.7C26.7 118.3 53.3 115.7 80 110.5C106.7 105.3 133.3 97.7 160 96.3C186.7 95 213.3 100 240 105.7C266.7 111.3 293.3 117.7 320 113C346.7 108.3 373.3 92.7 400 88.5C426.7 84.3 453.3 91.7 480 98.7C506.7 105.7 533.3 112.3 560 114C586.7 115.7 613.3 112.3 640 105.8C666.7 99.3 693.3 89.7 720 92.8C746.7 96 773.3 112 800 117C826.7 122 853.3 116 880 112.5C906.7 109 933.3 108 946.7 107.5L960 107L960 0L946.7 0C933.3 0 906.7 0 880 0C853.3 0 826.7 0 800 0C773.3 0 746.7 0 720 0C693.3 0 666.7 0 640 0C613.3 0 586.7 0 560 0C533.3 0 506.7 0 480 0C453.3 0 426.7 0 400 0C373.3 0 346.7 0 320 0C293.3 0 266.7 0 240 0C213.3 0 186.7 0 160 0C133.3 0 106.7 0 80 0C53.3 0 26.7 0 13.3 0L0 0Z" fill="#9a9a9a"></path><path d="M0 84L13.3 80.5C26.7 77 53.3 70 80 66C106.7 62 133.3 61 160 63.3C186.7 65.7 213.3 71.3 240 69.3C266.7 67.3 293.3 57.7 320 55.5C346.7 53.3 373.3 58.7 400 63.5C426.7 68.3 453.3 72.7 480 72.2C506.7 71.7 533.3 66.3 560 68.8C586.7 71.3 613.3 81.7 640 84.8C666.7 88 693.3 84 720 78.5C746.7 73 773.3 66 800 67.2C826.7 68.3 853.3 77.7 880 79.8C906.7 82 933.3 77 946.7 74.5L960 72L960 0L946.7 0C933.3 0 906.7 0 880 0C853.3 0 826.7 0 800 0C773.3 0 746.7 0 720 0C693.3 0 666.7 0 640 0C613.3 0 586.7 0 560 0C533.3 0 506.7 0 480 0C453.3 0 426.7 0 400 0C373.3 0 346.7 0 320 0C293.3 0 266.7 0 240 0C213.3 0 186.7 0 160 0C133.3 0 106.7 0 80 0C53.3 0 26.7 0 13.3 0L0 0Z" fill="#4b4b4b"></path><path d="M0 54L13.3 48.3C26.7 42.7 53.3 31.3 80 32.2C106.7 33 133.3 46 160 50.5C186.7 55 213.3 51 240 48.8C266.7 46.7 293.3 46.3 320 42.5C346.7 38.7 373.3 31.3 400 33.3C426.7 35.3 453.3 46.7 480 48C506.7 49.3 533.3 40.7 560 36.8C586.7 33 613.3 34 640 36C666.7 38 693.3 41 720 42.5C746.7 44 773.3 44 800 41.2C826.7 38.3 853.3 32.7 880 32C906.7 31.3 933.3 35.7 946.7 37.8L960 40L960 0L946.7 0C933.3 0 906.7 0 880 0C853.3 0 826.7 0 800 0C773.3 0 746.7 0 720 0C693.3 0 666.7 0 640 0C613.3 0 586.7 0 560 0C533.3 0 506.7 0 480 0C453.3 0 426.7 0 400 0C373.3 0 346.7 0 320 0C293.3 0 266.7 0 240 0C213.3 0 186.7 0 160 0C133.3 0 106.7 0 80 0C53.3 0 26.7 0 13.3 0L0 0Z" fill="#000000"></path></svg>